<svg xmlns="http://www.w3.org/2000/svg" xmlns:xlink="http://www.w3.org/1999/xlink" width="800" zoomAndPan="magnify" viewBox="0 0 600 599.999999" height="800" preserveAspectRatio="xMidYMid meet" version="1.0"><defs><clipPath id="7a8982236a"><path d="M 202.578125 216.929688 L 392 216.929688 L 392 396.285156 L 202.578125 396.285156 Z M 202.578125 216.929688 " clip-rule="nonzero"/></clipPath><clipPath id="a9657fb6bf"><path d="M 205.578125 216.929688 L 388.960938 216.929688 C 389.757812 216.929688 390.519531 217.246094 391.082031 217.808594 C 391.644531 218.371094 391.960938 219.132812 391.960938 219.929688 L 391.960938 393.285156 C 391.960938 394.082031 391.644531 394.84375 391.082031 395.40625 C 390.519531 395.96875 389.757812 396.285156 388.960938 396.285156 L 205.578125 396.285156 C 204.78125 396.285156 204.019531 395.96875 203.457031 395.40625 C 202.894531 394.84375 202.578125 394.082031 202.578125 393.285156 L 202.578125 219.929688 C 202.578125 219.132812 202.894531 218.371094 203.457031 217.808594 C 204.019531 217.246094 204.78125 216.929688 205.578125 216.929688 Z M 205.578125 216.929688 " clip-rule="nonzero"/></clipPath><clipPath id="3f5a27adc3"><path d="M 0.578125 0.929688 L 190 0.929688 L 190 180.285156 L 0.578125 180.285156 Z M 0.578125 0.929688 " clip-rule="nonzero"/></clipPath><clipPath id="0b13d1391d"><path d="M 3.578125 0.929688 L 186.960938 0.929688 C 187.757812 0.929688 188.519531 1.246094 189.082031 1.808594 C 189.644531 2.371094 189.960938 3.132812 189.960938 3.929688 L 189.960938 177.285156 C 189.960938 178.082031 189.644531 178.84375 189.082031 179.40625 C 188.519531 179.96875 187.757812 180.285156 186.960938 180.285156 L 3.578125 180.285156 C 2.78125 180.285156 2.019531 179.96875 1.457031 179.40625 C 0.894531 178.84375 0.578125 178.082031 0.578125 177.285156 L 0.578125 3.929688 C 0.578125 3.132812 0.894531 2.371094 1.457031 1.808594 C 2.019531 1.246094 2.78125 0.929688 3.578125 0.929688 Z M 3.578125 0.929688 " clip-rule="nonzero"/></clipPath><clipPath id="eb24151fcf"><rect x="0" width="190" y="0" height="181"/></clipPath><clipPath id="aa67e5a206"><path d="M 246.320312 18.148438 L 345.878906 18.148438 L 345.878906 232.9375 L 246.320312 232.9375 Z M 246.320312 18.148438 " clip-rule="nonzero"/></clipPath><clipPath id="86ca52e17a"><path d="M 296.777344 18.71875 L 345.59375 229.84375 C 345.757812 230.554688 345.589844 231.296875 345.136719 231.867188 C 344.683594 232.4375 343.996094 232.769531 343.269531 232.769531 L 248.929688 232.769531 C 248.203125 232.769531 247.515625 232.4375 247.0625 231.867188 C 246.609375 231.296875 246.441406 230.554688 246.605469 229.84375 L 295.425781 18.71875 C 295.496094 18.402344 295.777344 18.179688 296.101562 18.179688 C 296.421875 18.179688 296.703125 18.402344 296.777344 18.71875 Z M 296.777344 18.71875 " clip-rule="nonzero"/></clipPath><clipPath id="c654ce1a2b"><path d="M 0.320312 0.148438 L 99.839844 0.148438 L 99.839844 214.800781 L 0.320312 214.800781 Z M 0.320312 0.148438 " clip-rule="nonzero"/></clipPath><clipPath id="96c8c236a8"><path d="M 50.777344 0.71875 L 99.59375 211.84375 C 99.757812 212.554688 99.589844 213.296875 99.136719 213.867188 C 98.683594 214.4375 97.996094 214.769531 97.269531 214.769531 L 2.929688 214.769531 C 2.203125 214.769531 1.515625 214.4375 1.0625 213.867188 C 0.609375 213.296875 0.441406 212.554688 0.605469 211.84375 L 49.425781 0.71875 C 49.496094 0.402344 49.777344 0.179688 50.101562 0.179688 C 50.421875 0.179688 50.703125 0.402344 50.777344 0.71875 Z M 50.777344 0.71875 " clip-rule="nonzero"/></clipPath><clipPath id="f48bb1fba9"><rect x="0" width="100" y="0" height="215"/></clipPath><clipPath id="6451c2e0af"><path d="M 315 135 L 466 135 L 466 286 L 315 286 Z M 315 135 " clip-rule="nonzero"/></clipPath><clipPath id="97f59085fd"><path d="M 430.433594 100.527344 L 500.832031 170.925781 L 384.425781 287.328125 L 314.03125 216.933594 Z M 430.433594 100.527344 " clip-rule="nonzero"/></clipPath><clipPath id="26eeeabf6f"><path d="M 465.601562 136.984375 L 386.347656 284.738281 C 386.015625 285.359375 385.40625 285.785156 384.707031 285.890625 C 384.011719 285.992188 383.304688 285.757812 382.808594 285.261719 L 316.097656 218.550781 C 315.601562 218.054688 315.367188 217.347656 315.46875 216.652344 C 315.574219 215.953125 316 215.347656 316.621094 215.011719 L 464.375 135.757812 C 464.726562 135.570312 465.160156 135.632812 465.445312 135.914062 C 465.726562 136.199219 465.789062 136.632812 465.601562 136.984375 Z M 465.601562 136.984375 " clip-rule="nonzero"/></clipPath><clipPath id="8930021f30"><path d="M 0.359375 0.359375 L 150.839844 0.359375 L 150.839844 151 L 0.359375 151 Z M 0.359375 0.359375 " clip-rule="nonzero"/></clipPath><clipPath id="bba5ae229b"><path d="M 115.433594 -34.472656 L 185.832031 35.925781 L 69.425781 152.328125 L -0.96875 81.933594 Z M 115.433594 -34.472656 " clip-rule="nonzero"/></clipPath><clipPath id="a35f697b30"><path d="M 150.601562 1.984375 L 71.347656 149.738281 C 71.015625 150.359375 70.40625 150.785156 69.707031 150.890625 C 69.011719 150.992188 68.304688 150.757812 67.808594 150.261719 L 1.097656 83.550781 C 0.601562 83.054688 0.367188 82.347656 0.46875 81.652344 C 0.574219 80.953125 1 80.347656 1.621094 80.011719 L 149.375 0.757812 C 149.726562 0.570312 150.160156 0.632812 150.445312 0.914062 C 150.726562 1.199219 150.789062 1.632812 150.601562 1.984375 Z M 150.601562 1.984375 " clip-rule="nonzero"/></clipPath><clipPath id="f284599350"><rect x="0" width="151" y="0" height="151"/></clipPath><clipPath id="30770fc603"><path d="M 346.246094 253.722656 L 593.179688 253.722656 L 593.179688 353.28125 L 346.246094 353.28125 Z M 346.246094 253.722656 " clip-rule="nonzero"/></clipPath><clipPath id="cff445ce99"><path d="M 592.589844 304.09375 L 349.203125 353.082031 C 348.480469 353.226562 347.734375 353.039062 347.164062 352.574219 C 346.59375 352.105469 346.261719 351.410156 346.261719 350.671875 L 346.261719 256.332031 C 346.261719 255.597656 346.59375 254.898438 347.164062 254.433594 C 347.734375 253.964844 348.480469 253.777344 349.203125 253.925781 L 592.589844 302.910156 C 592.871094 302.96875 593.074219 303.214844 593.074219 303.503906 C 593.074219 303.789062 592.871094 304.039062 592.589844 304.09375 Z M 592.589844 304.09375 " clip-rule="nonzero"/></clipPath><clipPath id="8c0f0d8d50"><path d="M 0.246094 0.722656 L 247.179688 0.722656 L 247.179688 100.28125 L 0.246094 100.28125 Z M 0.246094 0.722656 " clip-rule="nonzero"/></clipPath><clipPath id="4d4699f4ee"><path d="M 246.589844 51.09375 L 3.203125 100.082031 C 2.480469 100.226562 1.734375 100.039062 1.164062 99.574219 C 0.59375 99.105469 0.261719 98.410156 0.261719 97.671875 L 0.261719 3.332031 C 0.261719 2.597656 0.59375 1.898438 1.164062 1.433594 C 1.734375 0.964844 2.480469 0.777344 3.203125 0.925781 L 246.589844 49.910156 C 246.871094 49.96875 247.074219 50.214844 247.074219 50.503906 C 247.074219 50.789062 246.871094 51.039062 246.589844 51.09375 Z M 246.589844 51.09375 " clip-rule="nonzero"/></clipPath><clipPath id="82b271d545"><rect x="0" width="248" y="0" height="101"/></clipPath><clipPath id="80f7f01d9b"><path d="M 326 316 L 486 316 L 486 457 L 326 457 Z M 326 316 " clip-rule="nonzero"/></clipPath><clipPath id="85d9ebabc5"><path d="M 516.230469 417.207031 L 454.59375 495.390625 L 325.316406 393.46875 L 386.953125 315.285156 Z M 516.230469 417.207031 " clip-rule="nonzero"/></clipPath><clipPath id="b00f29e03b"><path d="M 484.160156 456.414062 L 328.113281 395.070312 C 327.460938 394.8125 326.964844 394.257812 326.78125 393.578125 C 326.59375 392.898438 326.742188 392.171875 327.179688 391.617188 L 385.589844 317.53125 C 386.027344 316.976562 386.699219 316.664062 387.402344 316.683594 C 388.109375 316.703125 388.761719 317.058594 389.164062 317.632812 L 485.230469 455.054688 C 485.460938 455.382812 485.449219 455.820312 485.199219 456.132812 C 484.953125 456.445312 484.53125 456.5625 484.160156 456.414062 Z M 484.160156 456.414062 " clip-rule="nonzero"/></clipPath><clipPath id="4bcaaa2c19"><path d="M 0.398438 0.558594 L 159.519531 0.558594 L 159.519531 140.71875 L 0.398438 140.71875 Z M 0.398438 0.558594 " clip-rule="nonzero"/></clipPath><clipPath id="e9728bc3ac"><path d="M 190.230469 101.207031 L 128.59375 179.390625 L -0.683594 77.46875 L 60.953125 -0.714844 Z M 190.230469 101.207031 " clip-rule="nonzero"/></clipPath><clipPath id="d1ddb352a9"><path d="M 158.160156 140.414062 L 2.113281 79.070312 C 1.460938 78.8125 0.964844 78.257812 0.78125 77.578125 C 0.59375 76.898438 0.742188 76.171875 1.179688 75.617188 L 59.589844 1.53125 C 60.027344 0.976562 60.699219 0.664062 61.402344 0.683594 C 62.109375 0.703125 62.761719 1.058594 63.164062 1.632812 L 159.230469 139.054688 C 159.460938 139.382812 159.449219 139.820312 159.199219 140.132812 C 158.953125 140.445312 158.53125 140.5625 158.160156 140.414062 Z M 158.160156 140.414062 " clip-rule="nonzero"/></clipPath><clipPath id="730fb7b4cb"><rect x="0" width="160" y="0" height="141"/></clipPath><clipPath id="5e80c75e73"><path d="M 6.816406 253.71875 L 253.75 253.71875 L 253.75 353.277344 L 6.816406 353.277344 Z M 6.816406 253.71875 " clip-rule="nonzero"/></clipPath><clipPath id="edc3338f31"><path d="M 7.40625 302.90625 L 250.789062 253.917969 C 251.511719 253.773438 252.261719 253.960938 252.832031 254.425781 C 253.402344 254.894531 253.730469 255.589844 253.730469 256.328125 L 253.730469 350.667969 C 253.730469 351.40625 253.402344 352.101562 252.832031 352.570312 C 252.261719 353.035156 251.511719 353.222656 250.789062 353.078125 L 7.40625 304.089844 C 7.125 304.03125 6.921875 303.785156 6.921875 303.496094 C 6.921875 303.210938 7.125 302.960938 7.40625 302.90625 Z M 7.40625 302.90625 " clip-rule="nonzero"/></clipPath><clipPath id="0fed925a69"><path d="M 0.816406 0.71875 L 247.75 0.71875 L 247.75 100.277344 L 0.816406 100.277344 Z M 0.816406 0.71875 " clip-rule="nonzero"/></clipPath><clipPath id="fe54f36b73"><path d="M 1.40625 49.90625 L 244.789062 0.917969 C 245.511719 0.773438 246.261719 0.960938 246.832031 1.425781 C 247.402344 1.894531 247.730469 2.589844 247.730469 3.328125 L 247.730469 97.667969 C 247.730469 98.40625 247.402344 99.101562 246.832031 99.570312 C 246.261719 100.035156 245.511719 100.222656 244.789062 100.078125 L 1.40625 51.089844 C 1.125 51.03125 0.921875 50.785156 0.921875 50.496094 C 0.921875 50.210938 1.125 49.960938 1.40625 49.90625 Z M 1.40625 49.90625 " clip-rule="nonzero"/></clipPath><clipPath id="71d36faf01"><rect x="0" width="248" y="0" height="101"/></clipPath><clipPath id="b406687f9d"><path d="M 119 135 L 270 135 L 270 286 L 119 286 Z M 119 135 " clip-rule="nonzero"/></clipPath><clipPath id="e674bb55b8"><path d="M 83.929688 170.921875 L 154.324219 100.523438 L 270.730469 216.929688 L 200.332031 287.328125 Z M 83.929688 170.921875 " clip-rule="nonzero"/></clipPath><clipPath id="5897d9a460"><path d="M 120.386719 135.753906 L 268.140625 215.007812 C 268.761719 215.34375 269.1875 215.949219 269.289062 216.648438 C 269.394531 217.34375 269.160156 218.050781 268.660156 218.546875 L 201.953125 285.257812 C 201.453125 285.757812 200.75 285.988281 200.050781 285.886719 C 199.355469 285.785156 198.746094 285.355469 198.414062 284.734375 L 119.160156 136.980469 C 118.96875 136.628906 119.035156 136.195312 119.316406 135.914062 C 119.597656 135.628906 120.03125 135.566406 120.386719 135.753906 Z M 120.386719 135.753906 " clip-rule="nonzero"/></clipPath><clipPath id="362824aa9c"><path d="M 0 0.359375 L 150.519531 0.359375 L 150.519531 151 L 0 151 Z M 0 0.359375 " clip-rule="nonzero"/></clipPath><clipPath id="54782d2b80"><path d="M -35.070312 35.921875 L 35.324219 -34.476562 L 151.730469 81.929688 L 81.332031 152.328125 Z M -35.070312 35.921875 " clip-rule="nonzero"/></clipPath><clipPath id="13217c6804"><path d="M 1.386719 0.753906 L 149.140625 80.007812 C 149.761719 80.34375 150.1875 80.949219 150.289062 81.648438 C 150.394531 82.34375 150.160156 83.050781 149.660156 83.546875 L 82.953125 150.257812 C 82.453125 150.757812 81.75 150.988281 81.050781 150.886719 C 80.355469 150.785156 79.746094 150.355469 79.414062 149.734375 L 0.160156 1.980469 C -0.03125 1.628906 0.0351562 1.195312 0.316406 0.914062 C 0.597656 0.628906 1.03125 0.566406 1.386719 0.753906 Z M 1.386719 0.753906 " clip-rule="nonzero"/></clipPath><clipPath id="c5003e9312"><rect x="0" width="151" y="0" height="151"/></clipPath><clipPath id="3198ed8e84"><path d="M 114 316 L 274 316 L 274 457 L 114 457 Z M 114 316 " clip-rule="nonzero"/></clipPath><clipPath id="600288642d"><path d="M 145.746094 495.441406 L 84.042969 417.3125 L 213.234375 315.28125 L 274.9375 393.414062 Z M 145.746094 495.441406 " clip-rule="nonzero"/></clipPath><clipPath id="7e2d30bf8a"><path d="M 115.074219 455.132812 L 211.027344 317.632812 C 211.429688 317.054688 212.082031 316.699219 212.785156 316.679688 C 213.492188 316.660156 214.164062 316.972656 214.601562 317.527344 L 273.070312 391.5625 C 273.507812 392.117188 273.660156 392.84375 273.476562 393.523438 C 273.292969 394.203125 272.796875 394.757812 272.140625 395.015625 L 116.148438 456.492188 C 115.777344 456.636719 115.351562 456.523438 115.105469 456.210938 C 114.859375 455.898438 114.84375 455.457031 115.074219 455.132812 Z M 115.074219 455.132812 " clip-rule="nonzero"/></clipPath><clipPath id="6593b69c8f"><path d="M 0.71875 0.558594 L 159.839844 0.558594 L 159.839844 140.71875 L 0.71875 140.71875 Z M 0.71875 0.558594 " clip-rule="nonzero"/></clipPath><clipPath id="bd44f74a58"><path d="M 31.746094 179.441406 L -29.957031 101.3125 L 99.234375 -0.71875 L 160.9375 77.414062 Z M 31.746094 179.441406 " clip-rule="nonzero"/></clipPath><clipPath id="41335238e6"><path d="M 1.074219 139.132812 L 97.027344 1.632812 C 97.429688 1.054688 98.082031 0.699219 98.785156 0.679688 C 99.492188 0.660156 100.164062 0.972656 100.601562 1.527344 L 159.070312 75.5625 C 159.507812 76.117188 159.660156 76.84375 159.476562 77.523438 C 159.292969 78.203125 158.796875 78.757812 158.140625 79.015625 L 2.148438 140.492188 C 1.777344 140.636719 1.351562 140.523438 1.105469 140.210938 C 0.859375 139.898438 0.84375 139.457031 1.074219 139.132812 Z M 1.074219 139.132812 " clip-rule="nonzero"/></clipPath><clipPath id="004fb850ab"><rect x="0" width="160" y="0" height="141"/></clipPath><clipPath id="246c74af29"><path d="M 246.316406 367.058594 L 345.875 367.058594 L 345.875 581.851562 L 246.316406 581.851562 Z M 246.316406 367.058594 " clip-rule="nonzero"/></clipPath><clipPath id="15669d1fce"><path d="M 295.417969 581.28125 L 246.601562 370.15625 C 246.4375 369.445312 246.605469 368.703125 247.058594 368.132812 C 247.511719 367.5625 248.199219 367.230469 248.925781 367.230469 L 343.265625 367.230469 C 343.992188 367.230469 344.679688 367.5625 345.132812 368.132812 C 345.585938 368.703125 345.753906 369.445312 345.589844 370.15625 L 296.769531 581.28125 C 296.699219 581.597656 296.417969 581.820312 296.09375 581.820312 C 295.773438 581.820312 295.492188 581.597656 295.417969 581.28125 Z M 295.417969 581.28125 " clip-rule="nonzero"/></clipPath><clipPath id="6edc1c20eb"><path d="M 0.316406 0.199219 L 99.839844 0.199219 L 99.839844 214.851562 L 0.316406 214.851562 Z M 0.316406 0.199219 " clip-rule="nonzero"/></clipPath><clipPath id="639720c19e"><path d="M 49.417969 214.28125 L 0.601562 3.15625 C 0.4375 2.445312 0.605469 1.703125 1.058594 1.132812 C 1.511719 0.5625 2.199219 0.230469 2.925781 0.230469 L 97.265625 0.230469 C 97.992188 0.230469 98.679688 0.5625 99.132812 1.132812 C 99.585938 1.703125 99.753906 2.445312 99.589844 3.15625 L 50.769531 214.28125 C 50.699219 214.597656 50.417969 214.820312 50.09375 214.820312 C 49.773438 214.820312 49.492188 214.597656 49.417969 214.28125 Z M 49.417969 214.28125 " clip-rule="nonzero"/></clipPath><clipPath id="8f9c3f399a"><rect x="0" width="100" y="0" height="215"/></clipPath></defs><g clip-path="url(#7a8982236a)"><g clip-path="url(#a9657fb6bf)"><g transform="matrix(1, 0, 0, 1, 202, 216)"><g clip-path="url(#eb24151fcf)"><g clip-path="url(#3f5a27adc3)"><g clip-path="url(#0b13d1391d)"><path fill="#ffffff" d="M 0.578125 0.929688 L 189.742188 0.929688 L 189.742188 180.285156 L 0.578125 180.285156 Z M 0.578125 0.929688 " fill-opacity="1" fill-rule="nonzero"/></g></g></g></g></g></g><g clip-path="url(#aa67e5a206)"><g clip-path="url(#86ca52e17a)"><g transform="matrix(1, 0, 0, 1, 246, 18)"><g clip-path="url(#f48bb1fba9)"><g clip-path="url(#c654ce1a2b)"><g clip-path="url(#96c8c236a8)"><path fill="#ffffff" d="M -0.0703125 -2.203125 L 100.269531 -2.203125 L 100.269531 214.9375 L -0.0703125 214.9375 Z M -0.0703125 -2.203125 " fill-opacity="1" fill-rule="nonzero"/></g></g></g></g></g></g><g clip-path="url(#6451c2e0af)"><g clip-path="url(#97f59085fd)"><g clip-path="url(#26eeeabf6f)"><g transform="matrix(1, 0, 0, 1, 315, 135)"><g clip-path="url(#f284599350)"><g clip-path="url(#8930021f30)"><g clip-path="url(#bba5ae229b)"><g clip-path="url(#a35f697b30)"><path fill="#ffffff" d="M 116.542969 -36.136719 L 187.496094 34.816406 L 69.980469 152.328125 L -0.96875 81.378906 Z M 116.542969 -36.136719 " fill-opacity="1" fill-rule="nonzero"/></g></g></g></g></g></g></g></g><g clip-path="url(#30770fc603)"><g clip-path="url(#cff445ce99)"><g transform="matrix(1, 0, 0, 1, 346, 253)"><g clip-path="url(#82b271d545)"><g clip-path="url(#8c0f0d8d50)"><g clip-path="url(#4d4699f4ee)"><path fill="#ffffff" d="M 249.53125 0.332031 L 249.53125 100.671875 L 0.246094 100.671875 L 0.246094 0.332031 Z M 249.53125 0.332031 " fill-opacity="1" fill-rule="nonzero"/></g></g></g></g></g></g><g clip-path="url(#80f7f01d9b)"><g clip-path="url(#85d9ebabc5)"><g clip-path="url(#b00f29e03b)"><g transform="matrix(1, 0, 0, 1, 326, 316)"><g clip-path="url(#730fb7b4cb)"><g clip-path="url(#4bcaaa2c19)"><g clip-path="url(#e9728bc3ac)"><g clip-path="url(#d1ddb352a9)"><path fill="#ffffff" d="M 192.011719 102.113281 L 129.890625 180.910156 L -0.617188 78.019531 L 61.503906 -0.777344 Z M 192.011719 102.113281 " fill-opacity="1" fill-rule="nonzero"/></g></g></g></g></g></g></g></g><g clip-path="url(#5e80c75e73)"><g clip-path="url(#edc3338f31)"><g transform="matrix(1, 0, 0, 1, 6, 253)"><g clip-path="url(#71d36faf01)"><g clip-path="url(#0fed925a69)"><g clip-path="url(#fe54f36b73)"><path fill="#ffffff" d="M -1.535156 100.667969 L -1.535156 0.328125 L 247.75 0.328125 L 247.75 100.667969 Z M -1.535156 100.667969 " fill-opacity="1" fill-rule="nonzero"/></g></g></g></g></g></g><g clip-path="url(#b406687f9d)"><g clip-path="url(#e674bb55b8)"><g clip-path="url(#5897d9a460)"><g transform="matrix(1, 0, 0, 1, 119, 135)"><g clip-path="url(#c5003e9312)"><g clip-path="url(#362824aa9c)"><g clip-path="url(#54782d2b80)"><g clip-path="url(#13217c6804)"><path fill="#ffffff" d="M -36.734375 34.8125 L 34.21875 -36.140625 L 151.730469 81.375 L 80.777344 152.328125 Z M -36.734375 34.8125 " fill-opacity="1" fill-rule="nonzero"/></g></g></g></g></g></g></g></g><g clip-path="url(#3198ed8e84)"><g clip-path="url(#600288642d)"><g clip-path="url(#7e2d30bf8a)"><g transform="matrix(1, 0, 0, 1, 114, 316)"><g clip-path="url(#004fb850ab)"><g clip-path="url(#6593b69c8f)"><g clip-path="url(#bd44f74a58)"><g clip-path="url(#41335238e6)"><path fill="#ffffff" d="M 30.453125 180.964844 L -31.738281 102.21875 L 98.683594 -0.78125 L 160.875 77.964844 Z M 30.453125 180.964844 " fill-opacity="1" fill-rule="nonzero"/></g></g></g></g></g></g></g></g><g clip-path="url(#246c74af29)"><g clip-path="url(#15669d1fce)"><g transform="matrix(1, 0, 0, 1, 246, 367)"><g clip-path="url(#8f9c3f399a)"><g clip-path="url(#6edc1c20eb)"><g clip-path="url(#639720c19e)"><path fill="#ffffff" d="M 100.265625 217.203125 L -0.0742188 217.203125 L -0.0742188 0.0585938 L 100.265625 0.0585938 Z M 100.265625 217.203125 " fill-opacity="1" fill-rule="nonzero"/></g></g></g></g></g></g></svg>